<svg xmlns="http://www.w3.org/2000/svg" width="99" height="104" viewBox="0 0 99 104">
    <g fill="none" fill-rule="evenodd" stroke="#0068BF" stroke-width="2">
        <path d="M70.528 55l2.98 10.26-8.942 5.94h11.327L80.066 82l3.577-10.26 11.923.54-9.538-6.48L89.605 55 79.47 60.94zM73.874 31l1.154 4.18-3.462 2.42h4.385l1.615 4.4 1.385-4.18 4.615.22-3.692-2.64L81.26 31l-3.923 2.42zM9.528 74l2.98 10.26-8.942 5.94h11.327l4.173 10.8 3.577-10.26 11.923.54-9.538-6.48L28.605 74 18.47 79.94z"/>
        <path d="M9.528 74l2.98 10.26-8.942 5.94h11.327l4.173 10.8 3.577-10.26 11.923.54-9.538-6.48L28.605 74 18.47 79.94zM15.962 17l2.98 10.26L10 33.2h11.327L25.5 44l3.577-10.26L41 34.28l-9.538-6.48L35.038 17l-10.134 5.94zM39.22 53l1.827 6.08-5.48 3.52h6.942l2.557 6.4 2.193-6.08 7.307.32-5.846-3.84 2.193-6.4-6.212 3.52zM58.22 3l1.827 6.08-5.48 3.52h6.942l2.557 6.4 2.193-6.08 7.307.32L67.72 9.4 69.913 3 63.7 6.52z"/>
    </g>
</svg>
