<svg xmlns="http://www.w3.org/2000/svg" width="109" height="117" viewBox="0 0 109 117">
    <g fill="none" fill-rule="evenodd" stroke="#0068BF" stroke-width="2" transform="translate(3.313 3)">
        <rect width="1" height="73" x="56.687" y="22.142" rx=".5"/>
        <path d="M57.687 22.805v25.753h36.87l-9.634-11.599a2 2 0 0 1 0-2.555l9.634-11.599h-36.87zM31.727 61.124a1.184 1.184 0 0 0-2.04.818v41.762a.957.957 0 0 0 1.59.718l3.002-2.646a4 4 0 0 1 .715-.502l4.658-2.565a2 2 0 0 0 1.035-1.752V71.3a2 2 0 0 0-.554-1.382l-8.406-8.794z"/>
        <ellipse cx="33.687" cy="44.602" rx="15" ry="14.867"/>
        <path d="M37.727 30.726c-2.443 1.674-4.04 4.45-4.04 7.59 0 5.114 4.236 9.26 9.462 9.26 2.068 0 3.981-.65 5.538-1.752M29.574 11.894l.943 3.39-2.83 1.962h3.585l1.32 3.568 1.322-3.561 3.773-.007-3.396-1.962 1.32-3.39-3.207 1.962zM97.649 81.274l.48 1.884-1.442 1.09h1.827l.673 1.982.577-1.883 1.923.099-1.538-1.19.577-1.982-1.635 1.09zM83.764 53.522l1.539 5.273-4.616 3.053h5.846l2.154 5.55 1.846-5.273 6.154.278-4.923-3.33 1.846-5.55-5.23 3.052zM2.61 53.522l.962 3.39-2.885 1.962h3.654l1.346 3.568 1.154-3.39 3.846.18L7.61 57.09l1.154-3.568-3.27 1.963zM66.61 72.354l.962 3.39-2.885 1.962h3.654l1.346 3.568 1.154-3.39 3.846.179-3.077-2.14 1.154-3.569-3.27 1.962zM80.033 93.168l.673 2.26-2.019 1.308h2.558l.942 2.379.808-2.26 2.692.12-2.154-1.428.808-2.379-2.288 1.308zM65.572 0l1.442 5.273-4.327 3.053h5.48l2.02 5.55 1.73-5.273 5.77.278-4.615-3.33L74.802 0 69.9 3.053zM82.687 112c-6.106-9.548-16.664-15.858-28.664-15.858-11.788 0-22.184 6.088-28.336 15.354l57 .504zM29.687 59.469h4.992a4 4 0 0 1 2.82 1.164l3.917 3.896a4 4 0 0 0 2.95 1.162l6.56-.21a1.647 1.647 0 0 1 1.677 1.917l-.052.313a2 2 0 0 1-1.973 1.67H40.315"/>
        <rect width="6" height="23.77" x="21.687" y="58.487" rx="3"/>
        <path d="M29.687 80.779h11"/>
    </g>
</svg>
