<svg xmlns="http://www.w3.org/2000/svg" width="100" height="105" viewBox="0 0 100 105">
    <g fill="none" fill-rule="evenodd">
        <path d="M-10-8h120v120H-10z"/>
        <path stroke="#0675D4" stroke-width="2" d="M55.801 59.64l.001.001a.5.5 0 0 0 .706-.038L77.794 35.87a.5.5 0 0 0-.037-.705L61.96 20.886l-.001-.001a.5.5 0 0 0-.706.038L39.966 44.655a.5.5 0 0 0 .037.705L55.8 59.64zM40.23 73.065l.002.002a.5.5 0 0 0 .706-.039l12.058-13.443a.5.5 0 0 0-.037-.705L41.545 48.563l-.001-.001a.5.5 0 0 0-.706.038L28.78 62.044a.5.5 0 0 0 .037.704L40.23 73.065zM25.147 86.932h.002a.5.5 0 0 0 .706-.038l12.058-13.443a.5.5 0 0 0-.037-.705l-8.491-7.675-.002-.001a.5.5 0 0 0-.706.038L16.62 78.552a.5.5 0 0 0 .037.704l8.491 7.676zM10.064 100.798h.002a.5.5 0 0 0 .706-.037L22.83 87.317a.5.5 0 0 0-.037-.705l-5.569-5.033-.001-.001a.5.5 0 0 0-.706.038L4.459 95.06a.5.5 0 0 0 .037.704l5.568 5.034z"/>
        <path stroke="#0675D4" d="M9.17 103.79l.002.003a.978.978 0 0 0 1.381-.074.99.99 0 0 0-.072-1.396L2.947 95.5l-.003-.003a.978.978 0 0 0-1.381.074.99.99 0 0 0 .072 1.395l7.534 6.824zM73.88 38.342l.002.002a.962.962 0 0 0 1.359-.072.974.974 0 0 0-.071-1.374L60.3 23.428l-.003-.003a.962.962 0 0 0-1.358.073.974.974 0 0 0 .07 1.373l14.87 13.47z"/>
        <path stroke="#0675D4" stroke-width="2" d="M48.42 76.416l.333 6.231-5.48 2.403 6.022 1.28.9 6.676 3.154-5.49 6.273 1.657-4.28-4.8 3.221-5.801-6.113 2.267zM29.18 33.821l.105 2.718-2.275 1.077 2.48.527.336 2.909 1.331-2.413 2.581.69-1.742-2.072 1.36-2.548-2.535 1.021zM85.434 21.46l.41 5.862-5.434 2.19 6.022 1.28.983 6.288 3.076-5.122 6.277 1.638-4.33-4.568 3.139-5.413-6.068 2.054zM38.899 11.568l.41 5.863-5.434 2.189 6.022 1.28.982 6.288 3.076-5.122 6.277 1.639-4.329-4.568 3.138-5.413-6.068 2.054zM70.74 3.136l.226 3.514-3.204 1.325 3.542.753.563 3.768 1.824-3.078 3.692.967-2.538-2.728 1.86-3.252-3.577 1.245zM78.36 48.328l.227 3.514-3.205 1.325 3.543.753.563 3.767 1.823-3.078 3.692.968-2.538-2.729 1.86-3.252-3.577 1.246z"/>
    </g>
</svg>
