<svg xmlns="http://www.w3.org/2000/svg" width="228" height="74" viewBox="0 0 228 74">
    <defs>
        <filter id="a" width="133.7%" height="229.6%" x="-16.8%" y="-64.8%" filterUnits="objectBoundingBox">
            <feOffset dx="8" dy="3" in="SourceAlpha" result="shadowOffsetOuter1"/>
            <feGaussianBlur in="shadowOffsetOuter1" result="shadowBlurOuter1" stdDeviation="5"/>
            <feColorMatrix in="shadowBlurOuter1" result="shadowMatrixOuter1" values="0 0 0 0 0.78699615 0 0 0 0 0.78699615 0 0 0 0 0.78699615 0 0 0 0.52772618 0"/>
            <feMerge>
                <feMergeNode in="shadowMatrixOuter1"/>
                <feMergeNode in="SourceGraphic"/>
            </feMerge>
        </filter>
    </defs>
    <g fill="#C24E52" fill-rule="nonzero" filter="url(#a)" transform="translate(2 7)">
        <path d="M45.98 19.99V53.7h35.962V19.936l-14.475 27.56c-2.434 0-4.815.01-7.138-.009-4.801-9.195-9.545-18.28-14.348-27.498zM50.188.026l13.756 28.081L77.769.027H50.187zM0 53.887c.008-.37.02-.736.02-1.103V.042h34.35v52.755c0 .365.035.73.052 1.092L0 53.886z"/>
        <path d="M45.98 19.99c4.816 9.217 9.556 18.302 14.357 27.497 2.33.019 4.704 0 7.138.01l14.467-27.56v33.762H45.98v-33.71z"/>
        <path d="M50.187.027H77.77L63.944 28.108 50.187.027zm49.221 15.91V1.6h-4.845V.457h11.03v1.144h-4.838v14.335h-1.347zm7.797 0V.113L108.489 0v5.742a.314.314 0 0 1 0 .093.74.74 0 0 0-.009.114c0 .07-.01.175-.016.313.924-1.29 2.25-1.934 3.976-1.934 2.463 0 3.695 1.494 3.695 4.482v7.126h-1.272V9.06c0-1.283-.197-2.21-.59-2.783-.394-.572-1.088-.858-2.082-.858-.987 0-1.808.26-2.464.78a3.265 3.265 0 0 0-1.211 2.029c-.014.278-.02.69-.02 1.238v6.47h-1.291zm16.494.249c-1.567 0-2.81-.527-3.729-1.581-.918-1.054-1.379-2.483-1.382-4.286 0-1.741.45-3.167 1.351-4.276a4.446 4.446 0 0 1 3.494-1.717c1.333 0 2.403.478 3.21 1.435.806.956 1.207 2.24 1.202 3.85v.78h-7.906c.015 1.464.367 2.624 1.057 3.48a3.337 3.337 0 0 0 2.734 1.285c.65.012 1.3-.076 1.924-.26a9.998 9.998 0 0 0 1.71-.739l.217.968a7.246 7.246 0 0 1-3.882 1.061zm-3.708-6.834h6.456c0-1.27-.273-2.243-.817-2.919-.545-.676-1.294-1.014-2.247-1.014a2.887 2.887 0 0 0-2.34 1.083c-.591.72-.942 1.67-1.052 2.85zM96.365 34.665v-15.48h1.864l5.704 13.076 5.549-13.075h1.793v15.479h-1.316V24.252l.073-3.517-.384 1.249-5.062 11.796h-1.45L98.01 21.953l-.404-1.249.072 3.6v10.36h-1.313zm18.45-13.731v-1.748h1.283v1.748h-1.283zm0 13.734V23.264h1.294v11.4l-1.294.004zm4.472-.003V23.264h1.118l.176 1.757a4.266 4.266 0 0 1 1.642-1.44 4.82 4.82 0 0 1 2.22-.525c1.305 0 2.264.36 2.878 1.082.614.72.921 1.872.921 3.454v7.073h-1.294v-7.657c-.034-1.012-.248-1.74-.641-2.185-.394-.445-1.039-.668-1.936-.667-1.028 0-1.868.26-2.52.78a3.345 3.345 0 0 0-1.228 2.019c-.028.326-.042.666-.042 1.019v6.689l-1.294.002zm16.214.238c-1.512 0-2.69-.527-3.535-1.58-.845-1.055-1.268-2.511-1.27-4.37 0-1.749.437-3.169 1.31-4.261.873-1.093 2.023-1.638 3.45-1.636a5.295 5.295 0 0 1 2.113.457c.682.281 1.25.783 1.615 1.425v-6.096l1.243-.114v15.937h-1.067l-.186-1.717a3.787 3.787 0 0 1-1.6 1.462 4.667 4.667 0 0 1-2.073.493zm-.03-1.019a3.805 3.805 0 0 0 1.694-.354 2.916 2.916 0 0 0 1.16-.997c.3-.453.518-.955.647-1.483a7.566 7.566 0 0 0 .212-1.857c0-3.392-1.242-5.088-3.728-5.087a2.86 2.86 0 0 0-1.553.422 3.022 3.022 0 0 0-1.063 1.133 5.96 5.96 0 0 0-.573 1.55 8.107 8.107 0 0 0-.186 1.763 9.374 9.374 0 0 0 .113 1.503c.074.459.199.908.373 1.338.155.396.371.765.642 1.092.263.309.592.554.963.718.41.179.852.267 1.298.26zm8.706.78V24.209h-1.864l.084-.802 1.78-.145v-.426c0-1.499.259-2.588.777-3.267.518-.68 1.317-1.02 2.397-1.02.53.02 1.06.073 1.584.157l-.093.852c-.663-.076-1.11-.114-1.347-.114-.786 0-1.322.255-1.61.765-.286.51-.43 1.406-.43 2.689v.364h2.766v.947h-2.76v10.457h-1.284zm10.116.281a6.427 6.427 0 0 1-1.651-.202 4.756 4.756 0 0 1-1.414-.636 2.938 2.938 0 0 1-1.03-1.222 4.257 4.257 0 0 1-.379-1.862v-7.76h1.285v7.795c-.014.47.07.938.248 1.373.145.35.395.647.715.848.306.189.642.324.994.4.405.082.818.12 1.232.115.41.005.82-.036 1.22-.12.35-.078.683-.217.984-.41.314-.205.557-.501.7-.848.173-.431.256-.894.243-1.358v-7.794h1.283v7.76c.009.53-.075 1.059-.248 1.56a3.193 3.193 0 0 1-.662 1.124 3.463 3.463 0 0 1-.999.722c-.38.188-.784.323-1.2.4a7.221 7.221 0 0 1-1.321.115zm10.083-.042c-.953 0-1.65-.216-2.091-.649-.441-.433-.662-1.139-.663-2.118V18.833l1.264-.105v13.336c0 .693.126 1.173.378 1.435.251.262.633.396 1.143.396a6.419 6.419 0 0 0 1.553-.24l.052.999a7.166 7.166 0 0 1-1.636.25zm3.158-.238V23.264h1.118l.176 1.757a4.266 4.266 0 0 1 1.642-1.44 4.82 4.82 0 0 1 2.22-.525c1.305 0 2.264.36 2.878 1.082.614.72.921 1.872.921 3.454v7.073h-1.294v-7.657c-.034-1.012-.248-1.74-.641-2.185-.394-.445-1.039-.668-1.936-.667-1.028 0-1.868.26-2.52.78a3.345 3.345 0 0 0-1.228 2.019c-.028.326-.042.666-.042 1.019v6.689l-1.294.002zm16.525.25c-1.568 0-2.81-.528-3.728-1.582-.918-1.054-1.379-2.482-1.383-4.285 0-1.742.45-3.168 1.352-4.277a4.446 4.446 0 0 1 3.493-1.716c1.333 0 2.404.478 3.211 1.434.808.956 1.211 2.239 1.21 3.849v.78h-7.9c.013 1.464.365 2.624 1.056 3.48a3.337 3.337 0 0 0 2.734 1.285c.651.012 1.3-.076 1.925-.261a9.998 9.998 0 0 0 1.708-.738l.218.967a7.246 7.246 0 0 1-3.896 1.063zm-3.71-6.835h6.46c0-1.268-.273-2.241-.818-2.918-.544-.678-1.293-1.015-2.246-1.013a2.885 2.885 0 0 0-2.34 1.081c-.592.721-.944 1.671-1.055 2.85zm13.742 6.844a7.555 7.555 0 0 1-2.06-.277 5.335 5.335 0 0 1-1.522-.644l.186-1.082c1.14.596 2.23.895 3.272.895 1.87 0 2.84-.698 2.91-2.092a1.743 1.743 0 0 0-.565-1.373c-.378-.332-1.132-.679-2.263-1.04l-.983-.343c-1.774-.542-2.668-1.502-2.682-2.881 0-.797.35-1.502 1.05-2.116.7-.614 1.648-.921 2.843-.921a8.112 8.112 0 0 1 3.365.707l-.435.957a8.396 8.396 0 0 0-2.96-.603c-.801 0-1.43.18-1.89.54-.452.344-.709.887-.69 1.456 0 .514.15.908.451 1.182.3.273.896.533 1.786.78.097.028.275.09.533.187s.403.149.43.156c1.196.367 2.03.802 2.502 1.305.466.504.708 1.188.708 2.056-.02.996-.39 1.77-1.112 2.319-.722.55-1.68.826-2.874.832zm9.774 0a7.578 7.578 0 0 1-2.062-.27 5.343 5.343 0 0 1-1.52-.645l.186-1.081c1.14.596 2.23.894 3.272.894 1.87 0 2.84-.697 2.91-2.092a1.738 1.738 0 0 0-.566-1.373c-.376-.332-1.13-.678-2.262-1.04l-.983-.343c-1.774-.542-2.668-1.502-2.682-2.88 0-.798.35-1.503 1.05-2.117.7-.614 1.648-.92 2.843-.92a8.123 8.123 0 0 1 3.365.706l-.435.957a8.396 8.396 0 0 0-2.96-.603c-.802 0-1.433.18-1.891.54-.451.345-.708.888-.688 1.457 0 .514.15.907.45 1.181.3.274.896.534 1.786.78.097.028.274.09.533.188.26.096.403.148.43.156 1.194.366 2.027.8 2.5 1.304.466.505.71 1.188.71 2.056-.022.997-.393 1.77-1.114 2.319-.72.55-1.678.825-2.872.826zM96.478 53.393v-15.48h1.325v15.48h-1.325zm4.845 0V41.992h1.119l.175 1.757a4.276 4.276 0 0 1 1.642-1.44c.689-.35 1.45-.53 2.222-.525 1.304 0 2.263.361 2.877 1.082.614.721.921 1.872.922 3.454v7.073h-1.294v-7.657c-.036-1.011-.25-1.74-.643-2.185-.392-.445-1.037-.667-1.935-.665-1.029 0-1.869.26-2.521.78a3.345 3.345 0 0 0-1.228 2.019c-.028.325-.042.665-.042 1.019v6.689h-1.294zm12.063-13.731v-1.748h1.284v1.748h-1.284zm0 13.734V41.992h1.294v11.4l-1.294.004zm7.672.236c-.952 0-1.649-.217-2.091-.65-.442-.432-.663-1.138-.663-2.117v-7.927h-1.605l.093-.78 1.532-.147.342-2.611.9-.063v2.653h3.308v.946h-3.307v7.657c0 .803.131 1.342.394 1.617.263.275.726.412 1.387.412a6.717 6.717 0 0 0 1.594-.24l.051.998a10.61 10.61 0 0 1-1.935.252zm3.935-13.97v-1.748h1.283v1.748h-1.283zm0 13.734V41.992h1.298v11.4l-1.298.004zm7.512.247c-1.071 0-1.927-.27-2.568-.812-.64-.541-.962-1.314-.963-2.32a3.04 3.04 0 0 1 .384-1.56 2.88 2.88 0 0 1 1.112-1.07 6.534 6.534 0 0 1 1.667-.64 13.52 13.52 0 0 1 2.174-.323c.884-.055 1.54-.1 1.969-.135v-1.27c0-.872-.2-1.529-.597-1.971-.398-.442-1.034-.662-1.909-.66a6.86 6.86 0 0 0-3.365.863c-.028-.069-.091-.22-.192-.453a6.4 6.4 0 0 1-.212-.535 5.95 5.95 0 0 1 1.677-.696 7.733 7.733 0 0 1 2.03-.281c1.36 0 2.336.293 2.93.878.593.586.89 1.627.89 3.122v7.614h-1.004c-.036-.159-.088-.475-.155-.947a34.215 34.215 0 0 1-.098-.727c-.89 1.282-2.146 1.923-3.77 1.923zm.042-1.03a3.786 3.786 0 0 0 2.355-.78 3.678 3.678 0 0 0 1.351-2.186v-1.944l-1.502.124c-1.684.153-2.854.43-3.51.832-.655.402-.982 1.026-.982 1.873 0 .693.207 1.213.621 1.56.414.348.968.522 1.66.52h.007zm11.268 1.019c-.952 0-1.649-.217-2.092-.65-.444-.432-.664-1.138-.662-2.117v-7.927h-1.605l.094-.78 1.531-.147.342-2.611.9-.063v2.653h3.314v.946h-3.313v7.657c0 .803.13 1.342.393 1.617.262.275.724.412 1.387.412a6.717 6.717 0 0 0 1.595-.24l.052.998c-.637.143-1.284.227-1.936.252zm3.933-13.97v-1.748h1.285v1.748h-1.285zm0 13.734V41.992h1.296v11.4l-1.296.004zm7.29-.003l-4.327-11.401h1.376l2.631 7.189c.14.45.303.93.493 1.44.19.509.343.907.466 1.19l.175.427c.147-.485.318-.962.513-1.43.207-.51.399-1.043.575-1.596.186-.597.524-1.497 1.014-2.7s1.025-2.712 1.606-4.526h1.372l-4.4 11.4-1.494.007zm12.02.25c-1.567 0-2.81-.527-3.728-1.581-.917-1.054-1.378-2.483-1.382-4.286 0-1.742.45-3.167 1.351-4.276a4.446 4.446 0 0 1 3.494-1.717c1.333 0 2.403.478 3.21 1.434.809.956 1.212 2.24 1.211 3.849v.78h-7.9c.013 1.464.365 2.624 1.056 3.48a3.337 3.337 0 0 0 2.734 1.285c.65.012 1.3-.076 1.924-.26a9.998 9.998 0 0 0 1.71-.739l.217.968a7.246 7.246 0 0 1-3.896 1.063zm-3.706-6.835h6.46c0-1.268-.272-2.24-.818-2.918-.546-.678-1.294-1.016-2.246-1.015a2.887 2.887 0 0 0-2.341 1.083c-.593.722-.945 1.671-1.055 2.85z"/>
    </g>
</svg>
