<svg xmlns="http://www.w3.org/2000/svg" width="212" height="48" viewBox="0 0 212 48">
    <g fill="none" fill-rule="evenodd">
        <g fill="#0068BF" fill-rule="nonzero">
            <path d="M14.692 47.407h-1.68v-9.099l.2-3.815h-.023L8.395 47.407H6.892L2.097 34.493h-.022l.2 3.815v9.1H.594V32.935h2.718l3.203 8.793 1.105 3.617h.044l1.127-3.595 3.182-8.815h2.718v14.471zm4.13-13.067c-.397 0-.717-.121-.96-.362-.244-.241-.365-.56-.365-.954 0-.395.121-.713.364-.954.244-.241.564-.362.962-.362.397 0 .718.121.96.362.244.241.365.56.365.954 0 .395-.121.713-.364.954s-.564.362-.961.362zm.884 13.067H17.94V36.444h1.767v10.963zm8.285-11.182c1.252 0 2.283.358 3.094 1.075.81.716 1.215 1.746 1.215 3.091v7.016h-1.768v-6.402c0-1.14-.247-1.966-.74-2.478-.494-.511-1.153-.767-1.978-.767-.589 0-1.141.128-1.657.384-.515.256-.939.672-1.27 1.25-.332.577-.497 1.304-.497 2.181v5.832h-1.768V36.444h1.547l.11 1.71a3.44 3.44 0 0 1 1.525-1.457c.648-.315 1.377-.472 2.187-.472zm16.924-4.824v16.006H43.37l-.11-1.907c-.325.643-.822 1.158-1.492 1.546-.67.387-1.433.58-2.287.58-1.547 0-2.773-.507-3.68-1.523-.905-1.016-1.358-2.408-1.358-4.177 0-1.769.453-3.161 1.359-4.177.906-1.016 2.132-1.524 3.679-1.524.81 0 1.535.176 2.176.526.641.351 1.138.819 1.492 1.404V31.4h1.767zm-5.236 14.69c1.06 0 1.904-.365 2.53-1.095.626-.731.939-1.71.939-2.939v-.263c0-1.227-.313-2.207-.94-2.938-.625-.73-1.469-1.096-2.53-1.096-1.075 0-1.922.376-2.54 1.13-.62.752-.928 1.764-.928 3.036s.309 2.284.928 3.037c.618.752 1.465 1.129 2.54 1.129zm10.781-9.647h3.69v1.513h-3.69v9.45h-1.767v-9.45h-2.21v-1.513h2.21v-1.841c0-1.009.309-1.813.928-2.412.618-.6 1.517-.9 2.695-.9.398 0 .763.045 1.094.132.331.088.593.212.784.373l-.464 1.425c-.353-.219-.773-.329-1.26-.329-1.34 0-2.01.629-2.01 1.886v1.666zm14.428 0v10.963H63.34l-.11-1.666c-.737 1.257-2.056 1.886-3.956 1.886-1.193 0-2.169-.33-2.927-.987-.76-.658-1.138-1.666-1.138-3.026v-7.17h1.767v6.71c0 1.067.221 1.823.663 2.27.442.445 1.09.668 1.945.668 1.016 0 1.86-.307 2.53-.921.67-.614 1.005-1.535 1.005-2.763v-5.964h1.768zm4.594 8.025c0 .556.085.94.254 1.151.17.212.483.318.94.318.309 0 .578-.022.806-.065.228-.044.497-.125.806-.242l-.287 1.689a4.176 4.176 0 0 1-1.635.307c-.898 0-1.565-.242-2-.724-.434-.482-.651-1.22-.651-2.214V31.4h1.767V44.47zM90.869 47.407H88.68l-6.098-9.69-1.547-2.851h-.022l.088 2.324v10.217h-1.679v-14.47h2.187l6.077 9.647 1.569 2.894h.022l-.089-2.324V32.936h1.68v14.471zm12.173-1.271c.295 0 .59-.037.884-.11l-.11 1.381a3.94 3.94 0 0 1-1.326.22c-.575 0-1.028-.125-1.36-.373-.33-.249-.54-.665-.629-1.25-.339.512-.836.91-1.491 1.195a5.126 5.126 0 0 1-2.066.428c-1.09 0-1.989-.252-2.696-.757-.707-.504-1.06-1.231-1.06-2.181 0-.834.368-1.553 1.104-2.16.737-.607 1.805-1.027 3.204-1.26l2.939-.483v-.614c0-.731-.228-1.316-.685-1.754-.457-.439-1.09-.658-1.9-.658-.737 0-1.374.175-1.912.526-.537.351-.953.87-1.248 1.557l-1.304-.943c.295-.818.844-1.469 1.646-1.951.803-.483 1.742-.724 2.818-.724 1.31 0 2.364.314 3.16.943.795.629 1.193 1.557 1.193 2.785v5.393c0 .263.066.46.198.592.133.132.347.198.641.198zm-6.01-.044c.928 0 1.727-.22 2.397-.658.67-.438 1.006-1.009 1.006-1.71V42.21l-2.475.46c-.987.176-1.723.428-2.21.757-.486.329-.729.749-.729 1.26 0 .454.177.8.53 1.042.354.241.848.362 1.481.362zm14.582.548c-.736.658-1.687.987-2.85.987-.899 0-1.632-.242-2.199-.724s-.858-1.22-.873-2.214v-6.732h-2.21v-1.513h2.21v-2.63l1.768-.483v3.113h4.088v1.513h-4.088v6.425c0 .526.151.924.453 1.195.302.27.703.405 1.204.405.707 0 1.333-.27 1.878-.811l.62 1.469zm2.186-12.3c-.397 0-.718-.121-.96-.362-.244-.241-.365-.56-.365-.954 0-.395.121-.713.364-.954s.564-.362.961-.362c.398 0 .719.121.962.362s.364.56.364.954c0 .395-.121.713-.364.954s-.564.362-.962.362zm.884 13.067h-1.767V36.444h1.767v10.963zm7.578-11.182c1.664 0 2.972.504 3.922 1.513.95 1.009 1.425 2.405 1.425 4.188s-.475 3.18-1.425 4.188c-.95 1.008-2.258 1.513-3.922 1.513-1.665 0-2.972-.505-3.922-1.513-.95-1.009-1.425-2.405-1.425-4.188s.475-3.18 1.425-4.188c.95-1.009 2.257-1.513 3.922-1.513zm0 1.513c-1.12 0-1.996.373-2.63 1.118-.633.746-.95 1.769-.95 3.07 0 1.3.317 2.324.95 3.07.634.745 1.51 1.118 2.63 1.118 1.12 0 1.996-.373 2.63-1.118.633-.746.95-1.77.95-3.07 0-1.301-.317-2.324-.95-3.07-.634-.745-1.51-1.118-2.63-1.118zm12.947-1.513c1.252 0 2.283.358 3.093 1.075.81.716 1.215 1.746 1.215 3.091v7.016h-1.767v-6.402c0-1.14-.247-1.966-.74-2.478-.494-.511-1.153-.767-1.978-.767-.59 0-1.142.128-1.657.384-.516.256-.94.672-1.27 1.25-.332.577-.498 1.304-.498 2.181v5.832h-1.767V36.444h1.546l.11 1.71a3.44 3.44 0 0 1 1.525-1.457c.648-.315 1.378-.472 2.188-.472zM150.338 47.407h-1.768v-14.47h1.768v14.47zm8.351-11.182c.53 0 .936.073 1.215.22l-.353 1.71c-.354-.19-.818-.285-1.392-.285-.472 0-.932.135-1.381.405-.45.27-.818.68-1.105 1.228-.287.548-.43 1.21-.43 1.984v5.92h-1.768V36.444h1.436l.243 1.798c.619-1.344 1.797-2.017 3.535-2.017zm11.732 5.13c0 .41-.03.82-.089 1.229h-8.33c.103 1.11.475 1.973 1.116 2.587.64.614 1.47.92 2.486.92.81 0 1.484-.138 2.022-.416.537-.277.902-.68 1.093-1.206l1.48.768c-.441.774-1.03 1.366-1.767 1.776-.736.409-1.68.614-2.828.614-1.665 0-2.972-.505-3.922-1.513-.95-1.009-1.425-2.405-1.425-4.188s.453-3.18 1.359-4.188c.906-1.009 2.19-1.513 3.855-1.513 1.031 0 1.923.227 2.674.68a4.38 4.38 0 0 1 1.701 1.842c.383.774.575 1.644.575 2.609zm-4.95-3.595c-.972 0-1.756.285-2.353.855-.596.57-.961 1.374-1.094 2.412h6.695c-.117-1.023-.456-1.824-1.016-2.4-.56-.578-1.304-.867-2.232-.867zm8.793 6.71c0 .555.085.938.254 1.15.17.212.483.318.94.318.309 0 .578-.022.806-.065.228-.044.497-.125.806-.242l-.287 1.689a4.176 4.176 0 0 1-1.635.307c-.898 0-1.565-.242-2-.724-.434-.482-.651-1.22-.651-2.214V31.4h1.767V44.47zm12.947 1.666c.295 0 .59-.037.884-.11l-.11 1.381a3.94 3.94 0 0 1-1.326.22c-.575 0-1.028-.125-1.36-.373-.33-.249-.54-.665-.629-1.25-.339.512-.836.91-1.491 1.195a5.126 5.126 0 0 1-2.066.428c-1.09 0-1.989-.252-2.696-.757-.707-.504-1.06-1.231-1.06-2.181 0-.834.368-1.553 1.104-2.16.737-.607 1.805-1.027 3.204-1.26l2.939-.483v-.614c0-.731-.228-1.316-.685-1.754-.457-.439-1.09-.658-1.9-.658-.737 0-1.374.175-1.912.526-.537.351-.953.87-1.248 1.557l-1.304-.943c.295-.818.844-1.469 1.646-1.951.803-.483 1.742-.724 2.818-.724 1.31 0 2.364.314 3.16.943.795.629 1.193 1.557 1.193 2.785v5.393c0 .263.066.46.198.592.133.132.347.198.641.198zm-6.01-.044c.928 0 1.727-.22 2.398-.658.67-.438 1.005-1.009 1.005-1.71V42.21l-2.475.46c-.987.176-1.723.428-2.21.757-.486.329-.729.749-.729 1.26 0 .454.177.8.53 1.042.354.241.848.362 1.481.362zm13.632-9.867c1.252 0 2.283.358 3.093 1.075.81.716 1.216 1.746 1.216 3.091v7.016h-1.768v-6.402c0-1.14-.247-1.966-.74-2.478-.494-.511-1.153-.767-1.978-.767-.589 0-1.141.128-1.657.384-.515.256-.939.672-1.27 1.25-.332.577-.498 1.304-.498 2.181v5.832h-1.767V36.444h1.546l.111 1.71a3.44 3.44 0 0 1 1.525-1.457c.648-.315 1.377-.472 2.187-.472zm16.924-4.824v16.006h-1.546L210.1 45.5c-.324.643-.821 1.158-1.491 1.546-.67.387-1.433.58-2.287.58-1.547 0-2.773-.507-3.68-1.523-.905-1.016-1.358-2.408-1.358-4.177 0-1.769.453-3.161 1.359-4.177.906-1.016 2.132-1.524 3.679-1.524.81 0 1.535.176 2.176.526.64.351 1.138.819 1.492 1.404V31.4h1.767zm-5.236 14.69c1.06 0 1.903-.365 2.53-1.095.626-.731.939-1.71.939-2.939v-.263c0-1.227-.313-2.207-.94-2.938-.626-.73-1.469-1.096-2.53-1.096-1.075 0-1.922.376-2.54 1.13-.62.752-.929 1.764-.929 3.036s.31 2.284.929 3.037c.618.752 1.465 1.129 2.54 1.129z"/>
        </g>
        <path fill="#000" stroke="#0068BF" stroke-linecap="round" stroke-linejoin="round" stroke-width=".558" d="M64.496 27.556h83.606"/>
        <g fill="#0068BF">
            <path d="M92.563 7.808v17.08h4.18V13.038l6.57 6.519L118.839 4.88V0l-12.89 12.2L92.563 0v4.88zM118.84 8.889v16h-4.18V13.037zM103.825 20.148L118.84 5.926l.087 2.01-13.822 13.397z"/>
        </g>
    </g>
</svg>
